<mxfile host="app.diagrams.net" agent="Mozilla/5.0 (Windows NT 10.0; Win64; x64) AppleWebKit/537.36 (KHTML, like Gecko) Chrome/139.0.0.0 Safari/537.36" version="28.2.0">
  <diagram name="ページ1" id="4s6tPAoHQuxGWjrRMbbo">
    <mxGraphModel dx="582" dy="309" grid="1" gridSize="10" guides="1" tooltips="1" connect="1" arrows="1" fold="1" page="1" pageScale="1" pageWidth="827" pageHeight="1169" math="0" shadow="0">
      <root>
        <mxCell id="0" />
        <mxCell id="1" parent="0" />
        <mxCell id="ZHwwhYpiOnZUftY1QR7o-1" value="ドメインモデル" style="text;html=1;align=center;verticalAlign=middle;whiteSpace=wrap;rounded=0;" vertex="1" parent="1">
          <mxGeometry x="140" y="80" width="100" height="40" as="geometry" />
        </mxCell>
        <mxCell id="ZHwwhYpiOnZUftY1QR7o-2" value="乗り物" style="rounded=0;whiteSpace=wrap;html=1;" vertex="1" parent="1">
          <mxGeometry x="320" y="110" width="120" height="60" as="geometry" />
        </mxCell>
        <mxCell id="ZHwwhYpiOnZUftY1QR7o-3" value="乗り物" style="rounded=0;whiteSpace=wrap;html=1;" vertex="1" parent="1">
          <mxGeometry x="110" y="270" width="120" height="60" as="geometry" />
        </mxCell>
        <mxCell id="ZHwwhYpiOnZUftY1QR7o-4" value="乗り物" style="rounded=0;whiteSpace=wrap;html=1;" vertex="1" parent="1">
          <mxGeometry x="320" y="270" width="120" height="60" as="geometry" />
        </mxCell>
        <mxCell id="ZHwwhYpiOnZUftY1QR7o-5" value="乗り物" style="rounded=0;whiteSpace=wrap;html=1;" vertex="1" parent="1">
          <mxGeometry x="570" y="270" width="120" height="60" as="geometry" />
        </mxCell>
        <mxCell id="ZHwwhYpiOnZUftY1QR7o-6" value="" style="endArrow=block;html=1;rounded=0;shadow=0;endFill=0;exitX=0.5;exitY=0;exitDx=0;exitDy=0;entryX=0.5;entryY=1;entryDx=0;entryDy=0;" edge="1" parent="1" source="ZHwwhYpiOnZUftY1QR7o-3" target="ZHwwhYpiOnZUftY1QR7o-2">
          <mxGeometry width="50" height="50" relative="1" as="geometry">
            <mxPoint x="180" y="240" as="sourcePoint" />
            <mxPoint x="230" y="190" as="targetPoint" />
          </mxGeometry>
        </mxCell>
        <mxCell id="ZHwwhYpiOnZUftY1QR7o-7" value="" style="endArrow=block;html=1;rounded=0;shadow=0;endFill=0;exitX=0.5;exitY=0;exitDx=0;exitDy=0;entryX=0.5;entryY=1;entryDx=0;entryDy=0;" edge="1" parent="1" source="ZHwwhYpiOnZUftY1QR7o-4" target="ZHwwhYpiOnZUftY1QR7o-2">
          <mxGeometry width="50" height="50" relative="1" as="geometry">
            <mxPoint x="390" y="260" as="sourcePoint" />
            <mxPoint x="440" y="210" as="targetPoint" />
          </mxGeometry>
        </mxCell>
        <mxCell id="ZHwwhYpiOnZUftY1QR7o-8" value="" style="endArrow=block;html=1;rounded=0;shadow=0;endFill=0;exitX=0.5;exitY=0;exitDx=0;exitDy=0;entryX=0.5;entryY=1;entryDx=0;entryDy=0;" edge="1" parent="1" source="ZHwwhYpiOnZUftY1QR7o-5" target="ZHwwhYpiOnZUftY1QR7o-2">
          <mxGeometry width="50" height="50" relative="1" as="geometry">
            <mxPoint x="540" y="150" as="sourcePoint" />
            <mxPoint x="590" y="100" as="targetPoint" />
          </mxGeometry>
        </mxCell>
        <mxCell id="ZHwwhYpiOnZUftY1QR7o-9" value="車" style="rounded=0;whiteSpace=wrap;html=1;" vertex="1" parent="1">
          <mxGeometry x="320" y="400" width="120" height="60" as="geometry" />
        </mxCell>
        <mxCell id="ZHwwhYpiOnZUftY1QR7o-10" value="エンジン" style="rounded=0;whiteSpace=wrap;html=1;" vertex="1" parent="1">
          <mxGeometry x="160" y="520" width="120" height="60" as="geometry" />
        </mxCell>
        <mxCell id="ZHwwhYpiOnZUftY1QR7o-11" value="ボディ" style="rounded=0;whiteSpace=wrap;html=1;" vertex="1" parent="1">
          <mxGeometry x="480" y="520" width="120" height="60" as="geometry" />
        </mxCell>
        <mxCell id="ZHwwhYpiOnZUftY1QR7o-12" value="ハンドル" style="rounded=0;whiteSpace=wrap;html=1;" vertex="1" parent="1">
          <mxGeometry x="370" y="640" width="120" height="60" as="geometry" />
        </mxCell>
        <mxCell id="ZHwwhYpiOnZUftY1QR7o-13" value="ライト" style="rounded=0;whiteSpace=wrap;html=1;" vertex="1" parent="1">
          <mxGeometry x="630" y="640" width="120" height="60" as="geometry" />
        </mxCell>
        <mxCell id="ZHwwhYpiOnZUftY1QR7o-14" value="" style="endArrow=diamondThin;html=1;rounded=0;endFill=0;endSize=10;exitX=0.5;exitY=0;exitDx=0;exitDy=0;entryX=0.25;entryY=1;entryDx=0;entryDy=0;" edge="1" parent="1" source="ZHwwhYpiOnZUftY1QR7o-12" target="ZHwwhYpiOnZUftY1QR7o-11">
          <mxGeometry width="50" height="50" relative="1" as="geometry">
            <mxPoint x="380" y="630" as="sourcePoint" />
            <mxPoint x="430" y="580" as="targetPoint" />
          </mxGeometry>
        </mxCell>
        <mxCell id="ZHwwhYpiOnZUftY1QR7o-15" value="" style="endArrow=diamondThin;html=1;rounded=0;endFill=0;endSize=10;exitX=0.5;exitY=0;exitDx=0;exitDy=0;entryX=0.75;entryY=1;entryDx=0;entryDy=0;" edge="1" parent="1" source="ZHwwhYpiOnZUftY1QR7o-13" target="ZHwwhYpiOnZUftY1QR7o-11">
          <mxGeometry width="50" height="50" relative="1" as="geometry">
            <mxPoint x="390" y="640" as="sourcePoint" />
            <mxPoint x="440" y="590" as="targetPoint" />
          </mxGeometry>
        </mxCell>
        <mxCell id="ZHwwhYpiOnZUftY1QR7o-16" value="" style="endArrow=diamondThin;html=1;rounded=0;endFill=0;endSize=10;exitX=0.5;exitY=0;exitDx=0;exitDy=0;entryX=0.75;entryY=1;entryDx=0;entryDy=0;" edge="1" parent="1" source="ZHwwhYpiOnZUftY1QR7o-11" target="ZHwwhYpiOnZUftY1QR7o-9">
          <mxGeometry width="50" height="50" relative="1" as="geometry">
            <mxPoint x="590" y="480" as="sourcePoint" />
            <mxPoint x="470" y="420" as="targetPoint" />
          </mxGeometry>
        </mxCell>
        <mxCell id="ZHwwhYpiOnZUftY1QR7o-17" value="" style="endArrow=diamondThin;html=1;rounded=0;endFill=0;endSize=10;exitX=0.5;exitY=0;exitDx=0;exitDy=0;entryX=0.25;entryY=1;entryDx=0;entryDy=0;" edge="1" parent="1" source="ZHwwhYpiOnZUftY1QR7o-10" target="ZHwwhYpiOnZUftY1QR7o-9">
          <mxGeometry width="50" height="50" relative="1" as="geometry">
            <mxPoint x="330" y="500" as="sourcePoint" />
            <mxPoint x="200" y="440" as="targetPoint" />
          </mxGeometry>
        </mxCell>
      </root>
    </mxGraphModel>
  </diagram>
</mxfile>
